<?xml version="1.0" encoding="UTF-8" standalone="no"?>
<!-- Generator: Adobe Illustrator 16.0.0, SVG Export Plug-In . SVG Version: 6.00 Build 0)  -->

<svg
   version="1.1"
   id="Layer_1"
   x="0px"
   y="0px"
   width="1000"
   height="872.48804"
   viewBox="0 0 1000 872.48802"
   enable-background="new 0 0 820.313 999.986"
   xml:space="preserve"
   sodipodi:docname="Star_Gold 2020.svg"
   inkscape:version="1.1.1 (3bf5ae0d25, 2021-09-20)"
   xmlns:inkscape="http://www.inkscape.org/namespaces/inkscape"
   xmlns:sodipodi="http://sodipodi.sourceforge.net/DTD/sodipodi-0.dtd"
   xmlns="http://www.w3.org/2000/svg"
   xmlns:svg="http://www.w3.org/2000/svg"><defs
   id="defs17">
	
	
	
	
	
</defs><sodipodi:namedview
   id="namedview15"
   pagecolor="#ffffff"
   bordercolor="#666666"
   borderopacity="1.0"
   inkscape:pageshadow="2"
   inkscape:pageopacity="0.0"
   inkscape:pagecheckerboard="0"
   showgrid="false"
   inkscape:zoom="0.5"
   inkscape:cx="457"
   inkscape:cy="447"
   inkscape:window-width="1366"
   inkscape:window-height="705"
   inkscape:window-x="-8"
   inkscape:window-y="-8"
   inkscape:window-maximized="1"
   inkscape:current-layer="Layer_1" />

<g
   id="g77341"
   transform="scale(1.3574399)"><g
     id="g63297"
     transform="translate(-126.807,-178.27148)"><path
       id="rect15580"
       d="M 424.24023,464.13672 545.4043,387.39453 757.01966,365.35938 571.87109,470.98633 499.51567,522.44731 340.36914,668.07227 401.15625,480.98633 Z"
       style="display:inline;fill:#2b3692;fill-opacity:1"
       sodipodi:nodetypes="cccccccc" /><path
       style="display:inline;fill:#ee4646;fill-opacity:1;stroke:none;stroke-width:2.20042"
       d="m 571.87109,470.98633 -72.35547,51.46094 159.14454,145.62695 z"
       id="path26049" /><path
       style="display:inline;fill:#ee4646;fill-opacity:1;stroke:none;stroke-width:2.20042"
       d="m 499.51562,178.27148 -0.002,0.006 v 0.004 L 453.625,387.39258 242.0097,365.35938 424.24023,464.13672 545.4043,387.39453 499.51562,178.2832 Z"
       id="path893"
       sodipodi:nodetypes="ccccccccc" /><path
       id="rect28333"
       style="display:inline;fill:#d12e2f;fill-opacity:1"
       d="M 499.51566,522.44733 658.66023,668.07423 499.51566,552.44727 Z"
       sodipodi:nodetypes="cccc" /><path
       id="rect28333-9"
       style="display:inline;fill:#00abbf;fill-opacity:1"
       d="M 499.51369,522.44732 340.36912,668.07422 499.51369,552.44726 Z"
       sodipodi:nodetypes="cccc" /><path
       id="rect31592"
       style="display:inline;fill:#f06868;fill-opacity:1"
       d="m 658.66024,668.07422 -86.78915,-197.08789 26.00007,10 z"
       sodipodi:nodetypes="cccc" /><path
       id="rect28333-3"
       style="display:inline;fill:#00abbf;fill-opacity:1"
       d="M 571.87109,470.98633 757.01966,365.35938 597.87116,480.98633 Z"
       sodipodi:nodetypes="cccc" /><path
       id="rect28333-3-6"
       style="display:inline;fill:#f06868;fill-opacity:1"
       d="m 438.72657,365.35938 -196.71489,-10e-6 211.61332,22.03321 z"
       sodipodi:nodetypes="cccc" /><path
       id="rect28333-3-9"
       style="display:inline;fill:#d12e2f;fill-opacity:1"
       d="M 401.15625,480.98633 242.01168,365.35937 424.24023,464.13672 Z"
       sodipodi:nodetypes="cccc" /><path
       id="rect28333-3-4"
       style="display:inline;fill:#d12e2f;fill-opacity:1"
       d="M 453.625,387.39258 499.51562,178.2832 438.72657,365.35938 Z"
       sodipodi:nodetypes="cccc" /><g
       id="g45227"
       transform="translate(-6e-5,0.00195)"
       style="fill:#cf322f;fill-opacity:1"><path
         id="rect28333-3-6-6"
         style="display:inline;fill:#4a51a2;fill-opacity:1"
         d="m 560.30279,365.35938 196.71489,-10e-6 -211.61332,22.03321 z"
         sodipodi:nodetypes="cccc" /><path
         id="rect28333-3-4-5"
         style="display:inline;fill:#f06868;fill-opacity:1"
         d="M 545.40436,387.39258 499.51374,178.2832 560.30279,365.35938 Z"
         sodipodi:nodetypes="cccc" /></g><path
       id="path12695"
       style="display:inline;fill:#fefffb;fill-opacity:1"
       d="m 573.3125,409.23242 c -71.12631,10.761 -126.4078,35.20618 -172.15625,71.75391 l -41.86328,128.84179 c 5.93271,-17.04765 23.25824,-59.41902 60.44922,-98.89257 47.82397,-50.75915 79.42318,-70.04264 153.57031,-101.70313 z" /><path
       id="path12695-2-0"
       style="display:inline;fill:#d8e0f2;fill-opacity:1"
       d="M 573.3125,409.23242 C 499.16537,440.89291 467.56601,460.17693 419.74204,510.93608 371.91806,561.69523 356.69336,617.83203 356.69336,617.83203 434.35171,520.72972 492.78235,474.89848 573.3125,409.23242 Z"
       sodipodi:nodetypes="czcc" /></g><g
     id="g77062"
     transform="translate(-126.807,-178.27148)"><path
       d="m 137.73804,789.92396 q 5.4048,6.13353 10.62741,9.16993 5.28333,3.0364 10.50594,3.0364 4.85825,0 7.95538,-2.6113 3.15785,-2.61131 3.15785,-6.61936 0,-4.43314 -2.73276,-6.80154 -2.67203,-2.42912 -12.20633,-4.9797 -13.05653,-3.52222 -18.46132,-9.16993 -5.4048,-5.64771 -5.4048,-15.48565 0,-12.75288 8.50193,-20.76898 8.56265,-8.07683 22.16573,-8.07683 7.34809,0 13.90672,2.00403 6.61935,1.94329 12.50997,5.95134 l -7.591,17.42895 q -4.12951,-3.52223 -8.50193,-5.28334 -4.31169,-1.82184 -8.56265,-1.82184 -4.37242,0 -7.10518,2.12548 -2.73276,2.06475 -2.73276,5.34406 0,3.34005 2.36839,5.34407 2.42912,2.00403 9.29139,3.82587 l 1.09311,0.30364 q 14.81763,4.00805 19.49369,8.80556 3.15786,3.27931 4.79752,7.89465 1.63965,4.5546 1.63965,10.14158 0,14.14963 -9.29138,22.77301 -9.29139,8.56265 -24.77704,8.56265 -9.29139,0 -16.94312,-3.15786 -7.591,-3.15786 -14.63545,-9.89867 z"
       id="path77011"
       style="font-weight:bold;font-size:124.371px;line-height:1.25;font-family:'Futura Md BT';-inkscape-font-specification:'Futura Md BT Bold';letter-spacing:3.49px;stroke-width:0.717525" /><path
       d="M 225.42069,818.64832 V 750.75438 H 205.5019 v -21.0119 h 64.06807 v 21.0119 h -19.91879 v 67.89394 z"
       id="path77013"
       style="font-weight:bold;font-size:124.371px;line-height:1.25;font-family:'Futura Md BT';-inkscape-font-specification:'Futura Md BT Bold';letter-spacing:3.49px;stroke-width:0.717525" /><path
       d="m 304.72368,785.43008 h 24.10903 l -9.04848,-29.33163 q -0.4251,-1.33602 -1.15383,-4.31169 -0.72874,-2.97568 -1.88257,-7.65174 -0.78947,3.27932 -1.57893,6.25499 -0.72874,2.97567 -1.5182,5.70844 z m -33.94697,33.21824 30.66766,-88.90584 h 30.36401 l 30.72838,88.90584 h -24.10903 l -4.49387,-15.91075 h -34.43279 l -4.61533,15.91075 z"
       id="path77015"
       style="font-weight:bold;font-size:124.371px;line-height:1.25;font-family:'Futura Md BT';-inkscape-font-specification:'Futura Md BT Bold';letter-spacing:3.49px;stroke-width:0.717525" /><path
       d="m 375.14869,818.64832 v -88.90584 h 25.32359 q 14.87836,0 20.70826,1.39675 5.89061,1.33601 10.14158,4.5546 4.79751,3.64368 7.34809,9.29139 2.6113,5.6477 2.6113,12.44924 0,10.32377 -5.10115,16.82167 -5.04043,6.43717 -14.75691,8.56265 l 24.23048,35.82954 h -27.38834 l -20.40462,-34.79716 v 34.79716 z m 22.71228,-46.88204 h 4.49388 q 7.83391,0 11.41687,-2.67204 3.64368,-2.67203 3.64368,-8.38046 0,-6.68009 -3.40077,-9.47358 -3.34004,-2.85421 -11.29542,-2.85421 h -4.85824 z"
       id="path77017"
       style="font-weight:bold;font-size:124.371px;line-height:1.25;font-family:'Futura Md BT';-inkscape-font-specification:'Futura Md BT Bold';letter-spacing:3.49px;stroke-width:0.717525" /><path
       d="M 542.43795,785.91591 V 767.2724 h 47.61077 q 0.0607,0.91092 0.0607,2.00403 0.0607,1.0931 0.0607,3.21858 0,22.9552 -12.14561,35.64736 -12.08487,12.63143 -34.06842,12.63143 -10.80959,0 -19.25078,-3.21859 -8.38047,-3.27931 -14.99983,-9.9594 -6.31571,-6.37644 -9.83794,-15.06055 -3.4615,-8.74483 -3.4615,-18.27913 0,-9.9594 3.40077,-18.27914 3.40077,-8.38047 10.14158,-15.06055 6.68009,-6.4979 15.30347,-9.83794 8.68411,-3.34004 18.70423,-3.34004 13.05653,0 23.07665,5.16188 10.08085,5.16188 16.94312,15.36419 l -21.0119,10.08085 q -3.76513,-5.16188 -8.50192,-7.65173 -4.67606,-2.55058 -10.50595,-2.55058 -10.87032,0 -17.1253,7.28737 -6.25499,7.22663 -6.25499,19.79734 0,12.69215 6.25499,19.97952 6.25498,7.28736 17.1253,7.28736 9.23066,0 15.36419,-4.49387 6.19426,-4.55461 7.22664,-12.08488 z"
       id="path77019"
       style="font-weight:bold;font-size:124.371px;line-height:1.25;font-family:'Futura Md BT';-inkscape-font-specification:'Futura Md BT Bold';letter-spacing:3.49px;stroke-width:0.717525" /><path
       d="m 697.98206,774.37758 q 0,9.59503 -3.52223,17.9755 -3.52222,8.38047 -10.26303,14.99982 -6.80154,6.55863 -15.54638,10.14158 -8.74483,3.52223 -18.15768,3.52223 -9.5343,0 -18.27914,-3.52223 -8.6841,-3.58295 -15.30346,-10.14158 -6.86227,-6.61935 -10.44522,-15.06055 -3.52222,-8.44119 -3.52222,-17.91477 0,-9.5343 3.52222,-17.91477 3.58295,-8.44119 10.44522,-15.06055 6.61936,-6.55862 15.30346,-10.08085 8.74484,-3.58295 18.27914,-3.58295 9.47357,0 18.21841,3.58295 8.80556,3.52223 15.48565,10.08085 6.68008,6.55863 10.20231,14.99983 3.58295,8.44119 3.58295,17.97549 z m -47.48932,26.11305 q 10.08085,0 16.63948,-7.40881 6.61936,-7.40882 6.61936,-18.70424 0,-11.17395 -6.68009,-18.6435 -6.68008,-7.46955 -16.57875,-7.46955 -10.08085,0 -16.70021,7.46955 -6.55862,7.40882 -6.55862,18.6435 0,11.41687 6.4979,18.76496 6.49789,7.34809 16.76093,7.34809 z"
       id="path77021"
       style="font-weight:bold;font-size:124.371px;line-height:1.25;font-family:'Futura Md BT';-inkscape-font-specification:'Futura Md BT Bold';letter-spacing:3.49px;stroke-width:0.717525" /><path
       d="m 713.15406,818.64832 v -88.90584 h 24.23048 v 68.13685 h 30.12111 v 20.76899 z"
       id="path77023"
       style="font-weight:bold;font-size:124.371px;line-height:1.25;font-family:'Futura Md BT';-inkscape-font-specification:'Futura Md BT Bold';letter-spacing:3.49px;stroke-width:0.717525" /><path
       d="m 783.38758,818.64832 v -88.90584 h 18.52205 q 20.70826,0 29.27091,1.9433 8.62338,1.9433 15.12128,6.4979 8.44119,5.89062 12.81361,15.12128 4.37242,9.16993 4.37242,20.95117 0,11.78123 -4.37242,21.01189 -4.37242,9.16994 -12.81361,15.06056 -6.43717,4.49387 -14.69618,6.43717 -8.25902,1.88257 -25.62723,1.88257 h -4.06878 z m 23.98757,-19.9188 h 4.06878 q 14.27109,0 20.82971,-5.82989 6.55863,-5.89062 6.55863,-18.6435 0,-12.75289 -6.55863,-18.70424 -6.55862,-5.95134 -20.82971,-5.95134 h -4.06878 z"
       id="path77025"
       style="font-weight:bold;font-size:124.371px;line-height:1.25;font-family:'Futura Md BT';-inkscape-font-specification:'Futura Md BT Bold';letter-spacing:3.49px;stroke-width:0.717525" /></g></g></svg>
